<svg version="1.1" id="Layer_1" xmlns="http://www.w3.org/2000/svg" xmlns:xlink="http://www.w3.org/1999/xlink" x="0px" y="0px"
	 width="100%" viewBox="0 0 192 192" enable-background="new 0 0 192 192" xml:space="preserve">
<path fill="#FEFEFE" opacity="1.000000" stroke="none" 
	d="
M135.000000,193.000000 
	C90.028984,193.000000 45.557972,193.000000 1.043478,193.000000 
	C1.043478,129.070694 1.043478,65.141357 1.043478,1.106009 
	C64.887482,1.106009 128.775208,1.106009 192.831451,1.106009 
	C192.831451,64.999626 192.831451,128.999786 192.831451,193.000000 
	C173.808304,193.000000 154.654160,193.000000 135.000000,193.000000 
M89.975525,63.466976 
	C86.319336,63.451267 82.656517,63.305180 79.010574,63.490780 
	C77.739723,63.555473 76.510567,64.439178 75.262367,64.948845 
	C76.347626,65.612358 77.421814,66.295105 78.523949,66.929291 
	C78.926880,67.161140 79.396156,67.277710 80.030655,67.522202 
	C80.030655,72.479248 80.030655,77.405411 80.030655,82.411873 
	C79.466919,82.635574 79.010239,82.766655 78.602684,82.988106 
	C77.474167,83.601280 76.366127,84.252121 75.249985,84.888069 
	C76.473312,85.424713 77.686966,86.390991 78.921745,86.418770 
	C82.887230,86.507996 86.860519,86.250420 91.736656,86.446625 
	C96.059509,86.570808 100.399612,86.490967 104.702225,86.854614 
	C123.003891,88.401428 136.473434,103.421738 136.156113,121.768570 
	C135.834412,140.369766 121.014534,155.617676 102.394325,156.505432 
	C83.775246,157.393143 67.388733,144.324524 65.933250,126.239723 
	C64.882393,113.182526 65.363449,99.997894 65.263657,86.869316 
	C65.129753,69.252068 65.094604,51.634071 65.384300,33.385883 
	C65.384300,27.149153 65.384300,20.912422 65.384300,14.364882 
	C56.938519,14.972937 49.563145,15.503927 42.223061,16.032377 
	C42.223061,23.047703 42.223061,29.341726 42.025852,36.601265 
	C42.017883,65.931557 41.913666,95.262230 42.031593,124.592010 
	C42.130592,149.213638 54.382465,167.773300 75.807869,175.503876 
	C88.257217,179.995789 101.080132,180.707016 114.129379,177.967056 
	C145.558136,171.367905 165.741119,137.873779 157.339172,106.872810 
	C149.935303,79.554489 126.112770,60.564423 89.975525,63.466976 
z"/>
<path fill="#030303" opacity="1.000000" stroke="none" 
	d="
M65.017059,34.016396 
	C65.094604,51.634071 65.129753,69.252068 65.263657,86.869316 
	C65.363449,99.997894 64.882393,113.182526 65.933250,126.239723 
	C67.388733,144.324524 83.775246,157.393143 102.394325,156.505432 
	C121.014534,155.617676 135.834412,140.369766 136.156113,121.768570 
	C136.473434,103.421738 123.003891,88.401428 104.702225,86.854614 
	C100.399612,86.490967 96.059509,86.570808 91.276810,85.886330 
	C90.816223,78.136124 90.815491,70.946213 90.814758,63.756306 
	C126.112770,60.564423 149.935303,79.554489 157.339172,106.872810 
	C165.741119,137.873779 145.558136,171.367905 114.129379,177.967056 
	C101.080132,180.707016 88.257217,179.995789 75.807869,175.503876 
	C54.382465,167.773300 42.130592,149.213638 42.031593,124.592010 
	C41.913666,95.262230 42.017883,65.931557 42.534668,36.153484 
	C50.368008,35.142601 57.692535,34.579498 65.017059,34.016396 
z"/>
<path fill="#F46E10" opacity="1.000000" stroke="none" 
	d="
M65.200684,33.701141 
	C57.692535,34.579498 50.368008,35.142601 42.633270,35.670727 
	C42.223061,29.341726 42.223061,23.047703 42.223061,16.032377 
	C49.563145,15.503927 56.938519,14.972937 65.384300,14.364882 
	C65.384300,20.912422 65.384300,27.149153 65.200684,33.701141 
z"/>
<path fill="#E96E19" opacity="1.000000" stroke="none" 
	d="
M90.395142,63.611641 
	C90.815491,70.946213 90.816223,78.136124 90.823883,85.726334 
	C86.860519,86.250420 82.887230,86.507996 78.921745,86.418770 
	C77.686966,86.390991 76.473312,85.424713 75.249985,84.888069 
	C76.366127,84.252121 77.474167,83.601280 78.602684,82.988106 
	C79.010239,82.766655 79.466919,82.635574 80.030655,82.411873 
	C80.030655,77.405411 80.030655,72.479248 80.030655,67.522202 
	C79.396156,67.277710 78.926880,67.161140 78.523949,66.929291 
	C77.421814,66.295105 76.347626,65.612358 75.262367,64.948845 
	C76.510567,64.439178 77.739723,63.555473 79.010574,63.490780 
	C82.656517,63.305180 86.319336,63.451267 90.395142,63.611641 
z"/>
</svg>